<svg xmlns="http://www.w3.org/2000/svg" width="24" height="24" viewBox="0 0 24 24" role="img" aria-label="WhatsApp">
    <path fill="#25D366" d="M12 2a9.9 9.9 0 0 0-8.45 15.06L2 22l4.05-1.47A9.95 9.95 0 1 0 12 2z"/>
    <path fill="#fff" d="M17.1 13.74c-.26-.13-1.56-.77-1.8-.86-.24-.09-.41-.13-.58.13-.17.26-.67.86-.82 1.04-.15.17-.3.2-.56.07-.26-.13-1.1-.4-2.1-1.28-.78-.7-1.3-1.56-1.46-1.82-.15-.26-.02-.4.11-.53.11-.11.26-.3.39-.45.13-.15.17-.26.26-.43.09-.17.04-.33-.02-.45-.07-.13-.58-1.39-.8-1.9-.21-.5-.43-.43-.58-.44h-.5c-.17 0-.45.06-.69.33-.24.26-.9.88-.9 2.14 0 1.26.93 2.48 1.06 2.65.13.17 1.84 2.8 4.47 3.93.63.27 1.12.43 1.5.55.63.2 1.2.17 1.65.1.5-.08 1.56-.64 1.78-1.26.22-.63.22-1.17.15-1.26-.06-.09-.24-.15-.5-.28z"/>
</svg>
